<?xml version="1.0" encoding="UTF-8" standalone="no"?>
<!DOCTYPE svg PUBLIC "-//W3C//DTD SVG 1.1//EN"
 "http://www.w3.org/Graphics/SVG/1.1/DTD/svg11.dtd">
<!-- Generated by graphviz version 11.0.0 (20240428.1522)
 -->
<!-- Title: classes Pages: 1 -->
<svg width="3971pt" height="880pt"
 viewBox="0.00 0.00 3970.62 879.50" xmlns="http://www.w3.org/2000/svg" xmlns:xlink="http://www.w3.org/1999/xlink">
<g id="graph0" class="graph" transform="scale(1 1) rotate(0) translate(4 875.5)">
<title>classes</title>
<polygon fill="white" stroke="none" points="-4,4 -4,-875.5 3966.62,-875.5 3966.62,4 -4,4"/>
<!-- ann.optimizers.back_propagation.BackPropagation -->
<g id="node1" class="node">
<title>ann.optimizers.back_propagation.BackPropagation</title>
<polygon fill="none" stroke="black" points="0,-130.5 0,-178 195.25,-178 195.25,-130.5 0,-130.5"/>
<text text-anchor="start" x="49.62" y="-160.7" font-family="Times New Roman,serif" font-size="14.00">BackPropagation</text>
<polyline fill="none" stroke="black" points="0,-154.25 195.25,-154.25"/>
<polyline fill="none" stroke="black" points="0,-154.25 195.25,-154.25"/>
<text text-anchor="start" x="8" y="-136.95" font-family="Times New Roman,serif" font-size="14.00">step(trainer: &#39;ann.Trainer&#39;): None</text>
</g>
<!-- ann.optimizers.optimizer.Optimizer -->
<g id="node20" class="node">
<title>ann.optimizers.optimizer.Optimizer</title>
<polygon fill="none" stroke="black" points="15.88,-433.38 15.88,-532.62 189.38,-532.62 189.38,-433.38 15.88,-433.38"/>
<text text-anchor="start" x="75.25" y="-515.33" font-family="Times New Roman,serif" font-size="14.00">Optimizer</text>
<polyline fill="none" stroke="black" points="15.88,-508.88 189.38,-508.88"/>
<text text-anchor="start" x="46" y="-491.57" font-family="Times New Roman,serif" font-size="14.00">_learning_rate : float</text>
<text text-anchor="start" x="46" y="-475.82" font-family="Times New Roman,serif" font-size="14.00">learning_rate</text>
<polyline fill="none" stroke="black" points="15.88,-469.38 189.38,-469.38"/>
<text text-anchor="start" x="23.88" y="-453.07" font-family="Times New Roman,serif" font-size="14.00">__init__(learning_rate: float)</text>
<text text-anchor="start" x="23.88" y="-439.07" font-family="Times New Roman,serif" font-style="italic" font-size="14.00">step</text>
<text text-anchor="start" x="46.38" y="-439.07" font-family="Times New Roman,serif" font-size="14.00">(trainer: &#39;Trainer&#39;): None</text>
</g>
<!-- ann.optimizers.back_propagation.BackPropagation&#45;&gt;ann.optimizers.optimizer.Optimizer -->
<g id="edge15" class="edge">
<title>ann.optimizers.back_propagation.BackPropagation&#45;&gt;ann.optimizers.optimizer.Optimizer</title>
<path fill="none" stroke="black" d="M97.98,-178.49C98.75,-228.66 100.58,-348.48 101.7,-421.67"/>
<polygon fill="none" stroke="black" points="98.2,-421.54 101.85,-431.48 105.2,-421.43 98.2,-421.54"/>
</g>
<!-- ann.layers.activations.base_activation.BaseActivation -->
<g id="node2" class="node">
<title>ann.layers.activations.base_activation.BaseActivation</title>
<polygon fill="none" stroke="black" points="2558.88,-408 2558.88,-558 2768.38,-558 2768.38,-408 2558.88,-408"/>
<text text-anchor="start" x="2621.62" y="-540.7" font-family="Times New Roman,serif" font-size="14.00">BaseActivation</text>
<polyline fill="none" stroke="black" points="2558.88,-534.25 2768.38,-534.25"/>
<text text-anchor="start" x="2573.25" y="-516.95" font-family="Times New Roman,serif" font-size="14.00">_input_size : tuple[int, ...]</text>
<text text-anchor="start" x="2573.25" y="-501.2" font-family="Times New Roman,serif" font-size="14.00">_last_input : NoneType, ndarray</text>
<text text-anchor="start" x="2573.25" y="-485.45" font-family="Times New Roman,serif" font-size="14.00">size</text>
<polyline fill="none" stroke="black" points="2558.88,-479 2768.38,-479"/>
<text text-anchor="start" x="2566.88" y="-461.7" font-family="Times New Roman,serif" font-size="14.00">__init__(input_size: tuple[int, ...])</text>
<text text-anchor="start" x="2566.88" y="-445.95" font-family="Times New Roman,serif" font-size="14.00">__iter__(): Iterator</text>
<text text-anchor="start" x="2566.88" y="-430.2" font-family="Times New Roman,serif" font-size="14.00">__next__()</text>
<text text-anchor="start" x="2566.88" y="-414.45" font-family="Times New Roman,serif" font-size="14.00">forward(x: np.ndarray): np.ndarray</text>
</g>
<!-- ann.layers.base_layer.BaseLayer -->
<g id="node4" class="node">
<title>ann.layers.base_layer.BaseLayer</title>
<polygon fill="none" stroke="black" points="2075.5,-701.75 2075.5,-827.25 2297.75,-827.25 2297.75,-701.75 2075.5,-701.75"/>
<text text-anchor="start" x="2157.38" y="-809.95" font-family="Times New Roman,serif" font-size="14.00">BaseLayer</text>
<polyline fill="none" stroke="black" points="2075.5,-803.5 2297.75,-803.5"/>
<text text-anchor="start" x="2176.12" y="-786.2" font-family="Times New Roman,serif" font-size="14.00">size</text>
<polyline fill="none" stroke="black" points="2075.5,-779.75 2297.75,-779.75"/>
<text text-anchor="start" x="2083.5" y="-763.45" font-family="Times New Roman,serif" font-size="14.00">__init__(): None</text>
<text text-anchor="start" x="2083.5" y="-749.45" font-family="Times New Roman,serif" font-style="italic" font-size="14.00">__iter__</text>
<text text-anchor="start" x="2132.25" y="-749.45" font-family="Times New Roman,serif" font-size="14.00">(): Iterator</text>
<text text-anchor="start" x="2083.5" y="-735.45" font-family="Times New Roman,serif" font-style="italic" font-size="14.00">backward</text>
<text text-anchor="start" x="2140.5" y="-735.45" font-family="Times New Roman,serif" font-size="14.00">(y: np.ndarray): np.ndarray</text>
<text text-anchor="start" x="2083.5" y="-721.45" font-family="Times New Roman,serif" font-style="italic" font-size="14.00">forward</text>
<text text-anchor="start" x="2129.25" y="-721.45" font-family="Times New Roman,serif" font-size="14.00">(x: np.ndarray): np.ndarray</text>
<text text-anchor="start" x="2083.5" y="-707.45" font-family="Times New Roman,serif" font-style="italic" font-size="14.00">predict</text>
<text text-anchor="start" x="2123.25" y="-707.45" font-family="Times New Roman,serif" font-size="14.00">(x: np.ndarray): np.ndarray</text>
</g>
<!-- ann.layers.activations.base_activation.BaseActivation&#45;&gt;ann.layers.base_layer.BaseLayer -->
<g id="edge4" class="edge">
<title>ann.layers.activations.base_activation.BaseActivation&#45;&gt;ann.layers.base_layer.BaseLayer</title>
<path fill="none" stroke="black" d="M2558.44,-552.28C2530.43,-570.03 2500.06,-588.89 2471.62,-605.75 2418.61,-637.19 2359.09,-670.45 2308.2,-698.29"/>
<polygon fill="none" stroke="black" points="2306.57,-695.19 2299.47,-703.05 2309.92,-701.33 2306.57,-695.19"/>
</g>
<!-- ann.inizializators.base_initializer.BaseInitializer -->
<g id="node3" class="node">
<title>ann.inizializators.base_initializer.BaseInitializer</title>
<polygon fill="none" stroke="black" points="1962.75,-426.38 1962.75,-539.62 2210.5,-539.62 2210.5,-426.38 1962.75,-426.38"/>
<text text-anchor="start" x="2048.38" y="-522.33" font-family="Times New Roman,serif" font-size="14.00">BaseInitializer</text>
<polyline fill="none" stroke="black" points="1962.75,-515.88 2210.5,-515.88"/>
<text text-anchor="start" x="2021.75" y="-498.57" font-family="Times New Roman,serif" font-size="14.00">__instance : NoneType</text>
<text text-anchor="start" x="2021.75" y="-482.82" font-family="Times New Roman,serif" font-size="14.00">_generator</text>
<polyline fill="none" stroke="black" points="1962.75,-476.38 2210.5,-476.38"/>
<text text-anchor="start" x="1970.75" y="-460.07" font-family="Times New Roman,serif" font-size="14.00">__new__()</text>
<text text-anchor="start" x="1970.75" y="-446.07" font-family="Times New Roman,serif" font-style="italic" font-size="14.00">initialize</text>
<text text-anchor="start" x="2019.5" y="-446.07" font-family="Times New Roman,serif" font-size="14.00">(shape: tuple[int, ...]): np.ndarray</text>
<text text-anchor="start" x="1970.75" y="-432.07" font-family="Times New Roman,serif" font-size="14.00">seed(seed: int): None</text>
</g>
<!-- ann.neuron.base_neuron.BaseNeuron -->
<g id="node5" class="node">
<title>ann.neuron.base_neuron.BaseNeuron</title>
<polygon fill="none" stroke="black" points="3045.38,-404.5 3045.38,-561.5 3287.88,-561.5 3287.88,-404.5 3045.38,-404.5"/>
<text text-anchor="start" x="3132.5" y="-544.2" font-family="Times New Roman,serif" font-size="14.00">BaseNeuron</text>
<polyline fill="none" stroke="black" points="3045.38,-537.75 3287.88,-537.75"/>
<text text-anchor="start" x="3145.62" y="-520.45" font-family="Times New Roman,serif" font-size="14.00">bias</text>
<text text-anchor="start" x="3145.62" y="-504.7" font-family="Times New Roman,serif" font-size="14.00">size</text>
<text text-anchor="start" x="3145.62" y="-488.95" font-family="Times New Roman,serif" font-size="14.00">weights</text>
<polyline fill="none" stroke="black" points="3045.38,-482.5 3287.88,-482.5"/>
<text text-anchor="start" x="3053.38" y="-466.2" font-family="Times New Roman,serif" font-style="italic" font-size="14.00">__init__</text>
<text text-anchor="start" x="3102.12" y="-466.2" font-family="Times New Roman,serif" font-size="14.00">(input_size: tuple[int, ...]): None</text>
<text text-anchor="start" x="3053.38" y="-452.2" font-family="Times New Roman,serif" font-style="italic" font-size="14.00">backward</text>
<text text-anchor="start" x="3110.38" y="-452.2" font-family="Times New Roman,serif" font-size="14.00">(x: np.ndarray): np.longdouble</text>
<text text-anchor="start" x="3053.38" y="-438.2" font-family="Times New Roman,serif" font-style="italic" font-size="14.00">forward</text>
<text text-anchor="start" x="3099.12" y="-438.2" font-family="Times New Roman,serif" font-size="14.00">(x: np.ndarray): np.longdouble</text>
<text text-anchor="start" x="3053.38" y="-424.2" font-family="Times New Roman,serif" font-style="italic" font-size="14.00">initialize</text>
<text text-anchor="start" x="3102.12" y="-424.2" font-family="Times New Roman,serif" font-size="14.00">(initializer: BaseInitializer): None</text>
<text text-anchor="start" x="3053.38" y="-410.2" font-family="Times New Roman,serif" font-style="italic" font-size="14.00">predict</text>
<text text-anchor="start" x="3093.12" y="-410.2" font-family="Times New Roman,serif" font-size="14.00">(x: np.ndarray): np.longdouble</text>
</g>
<!-- ann.layers.scalers.base_scaler.BaseScaler -->
<g id="node6" class="node">
<title>ann.layers.scalers.base_scaler.BaseScaler</title>
<polygon fill="none" stroke="black" points="1251.38,-398.38 1251.38,-567.62 1499.88,-567.62 1499.88,-398.38 1251.38,-398.38"/>
<text text-anchor="start" x="1344.88" y="-550.33" font-family="Times New Roman,serif" font-size="14.00">BaseScaler</text>
<polyline fill="none" stroke="black" points="1251.38,-543.88 1499.88,-543.88"/>
<text text-anchor="start" x="1304.38" y="-526.58" font-family="Times New Roman,serif" font-size="14.00">_input_size : tuple[int, ...]</text>
<text text-anchor="start" x="1304.38" y="-510.82" font-family="Times New Roman,serif" font-size="14.00">size</text>
<polyline fill="none" stroke="black" points="1251.38,-504.38 1499.88,-504.38"/>
<text text-anchor="start" x="1259.38" y="-488.07" font-family="Times New Roman,serif" font-size="14.00">__init__(input_size: tuple[int, ...])</text>
<text text-anchor="start" x="1259.38" y="-474.07" font-family="Times New Roman,serif" font-size="14.00">__iter__(): Iterator</text>
<text text-anchor="start" x="1259.38" y="-460.07" font-family="Times New Roman,serif" font-size="14.00">__next__()</text>
<text text-anchor="start" x="1259.38" y="-446.07" font-family="Times New Roman,serif" font-style="italic" font-size="14.00">_fit_backward</text>
<text text-anchor="start" x="1342.62" y="-446.07" font-family="Times New Roman,serif" font-size="14.00">(x: np.ndarray): np.ndarray</text>
<text text-anchor="start" x="1259.38" y="-432.07" font-family="Times New Roman,serif" font-style="italic" font-size="14.00">_fit_forward</text>
<text text-anchor="start" x="1331.38" y="-432.07" font-family="Times New Roman,serif" font-size="14.00">(x: np.ndarray): None</text>
<text text-anchor="start" x="1259.38" y="-418.07" font-family="Times New Roman,serif" font-size="14.00">fit(x: np.ndarray, reverse: bool): None</text>
<text text-anchor="start" x="1259.38" y="-404.07" font-family="Times New Roman,serif" font-size="14.00">predict(x: np.ndarray): np.ndarray</text>
</g>
<!-- ann.layers.scalers.base_scaler.BaseScaler&#45;&gt;ann.layers.base_layer.BaseLayer -->
<g id="edge9" class="edge">
<title>ann.layers.scalers.base_scaler.BaseScaler&#45;&gt;ann.layers.base_layer.BaseLayer</title>
<path fill="none" stroke="black" d="M1454.26,-567.87C1471.05,-582.2 1489.52,-595.68 1508.62,-605.75 1687.81,-700.16 1922.95,-738.57 2063.99,-753.83"/>
<polygon fill="none" stroke="black" points="2063.42,-757.29 2073.74,-754.86 2064.16,-750.33 2063.42,-757.29"/>
</g>
<!-- ann.schedules.base_schedule.BaseSchedule -->
<g id="node7" class="node">
<title>ann.schedules.base_schedule.BaseSchedule</title>
<polygon fill="none" stroke="black" points="3385.75,-395.75 3385.75,-570.25 3615.5,-570.25 3615.5,-395.75 3385.75,-395.75"/>
<text text-anchor="start" x="3461.62" y="-552.95" font-family="Times New Roman,serif" font-size="14.00">BaseSchedule</text>
<polyline fill="none" stroke="black" points="3385.75,-546.5 3615.5,-546.5"/>
<text text-anchor="start" x="3420.75" y="-529.2" font-family="Times New Roman,serif" font-size="14.00">_current_learning_rate : float</text>
<text text-anchor="start" x="3420.75" y="-513.45" font-family="Times New Roman,serif" font-size="14.00">_epoch : int</text>
<text text-anchor="start" x="3420.75" y="-497.7" font-family="Times New Roman,serif" font-size="14.00">_initial_learning_rate : float</text>
<text text-anchor="start" x="3420.75" y="-481.95" font-family="Times New Roman,serif" font-size="14.00">_trainer : NoneType, str</text>
<text text-anchor="start" x="3420.75" y="-466.2" font-family="Times New Roman,serif" font-size="14.00">learning_rate</text>
<polyline fill="none" stroke="black" points="3385.75,-459.75 3615.5,-459.75"/>
<text text-anchor="start" x="3393.75" y="-443.45" font-family="Times New Roman,serif" font-size="14.00">__init__(learning_rate: float): None</text>
<text text-anchor="start" x="3393.75" y="-429.45" font-family="Times New Roman,serif" font-size="14.00">set_trainer(trainer: &#39;ann.Trainer&#39;): None</text>
<text text-anchor="start" x="3393.75" y="-415.45" font-family="Times New Roman,serif" font-size="14.00">start(): None</text>
<text text-anchor="start" x="3393.75" y="-401.45" font-family="Times New Roman,serif" font-style="italic" font-size="14.00">step</text>
<text text-anchor="start" x="3416.25" y="-401.45" font-family="Times New Roman,serif" font-size="14.00">(): None</text>
</g>
<!-- ann.schedules.exponential_schedule.ExponentialSchedule -->
<g id="node8" class="node">
<title>ann.schedules.exponential_schedule.ExponentialSchedule</title>
<polygon fill="none" stroke="black" points="3322.25,-102.88 3322.25,-205.62 3465,-205.62 3465,-102.88 3322.25,-102.88"/>
<text text-anchor="start" x="3335.5" y="-188.32" font-family="Times New Roman,serif" font-size="14.00">ExponentialSchedule</text>
<polyline fill="none" stroke="black" points="3322.25,-181.88 3465,-181.88"/>
<text text-anchor="start" x="3331.38" y="-164.57" font-family="Times New Roman,serif" font-size="14.00">_current_learning_rate</text>
<text text-anchor="start" x="3331.38" y="-148.82" font-family="Times New Roman,serif" font-size="14.00">_gamma : float</text>
<polyline fill="none" stroke="black" points="3322.25,-142.38 3465,-142.38"/>
<text text-anchor="start" x="3330.25" y="-125.08" font-family="Times New Roman,serif" font-size="14.00">__init__(gamma: float)</text>
<text text-anchor="start" x="3330.25" y="-109.33" font-family="Times New Roman,serif" font-size="14.00">step(): None</text>
</g>
<!-- ann.schedules.exponential_schedule.ExponentialSchedule&#45;&gt;ann.schedules.base_schedule.BaseSchedule -->
<g id="edge16" class="edge">
<title>ann.schedules.exponential_schedule.ExponentialSchedule&#45;&gt;ann.schedules.base_schedule.BaseSchedule</title>
<path fill="none" stroke="black" d="M3410.23,-205.95C3425.81,-253.53 3449.54,-325.99 3468.77,-384.73"/>
<polygon fill="none" stroke="black" points="3465.4,-385.68 3471.84,-394.09 3472.05,-383.5 3465.4,-385.68"/>
</g>
<!-- ann.layers.full_layer.FullLayer -->
<g id="node9" class="node">
<title>ann.layers.full_layer.FullLayer</title>
<polygon fill="none" stroke="black" points="1518.12,-384.38 1518.12,-581.62 1945.12,-581.62 1945.12,-384.38 1518.12,-384.38"/>
<text text-anchor="start" x="1705.38" y="-564.33" font-family="Times New Roman,serif" font-size="14.00">FullLayer</text>
<polyline fill="none" stroke="black" points="1518.12,-557.88 1945.12,-557.88"/>
<text text-anchor="start" x="1679.88" y="-540.58" font-family="Times New Roman,serif" font-size="14.00">__initializer</text>
<text text-anchor="start" x="1679.88" y="-524.83" font-family="Times New Roman,serif" font-size="14.00">__input_size</text>
<text text-anchor="start" x="1679.88" y="-509.07" font-family="Times New Roman,serif" font-size="14.00">__neurons</text>
<text text-anchor="start" x="1679.88" y="-493.32" font-family="Times New Roman,serif" font-size="14.00">__output_size : int</text>
<text text-anchor="start" x="1679.88" y="-477.57" font-family="Times New Roman,serif" font-size="14.00">size</text>
<polyline fill="none" stroke="black" points="1518.12,-471.12 1945.12,-471.12"/>
<text text-anchor="start" x="1526.12" y="-453.82" font-family="Times New Roman,serif" font-size="14.00">__init__(input_size: tuple[int, ...], size: int, initializer: BaseInitializer): None</text>
<text text-anchor="start" x="1526.12" y="-438.07" font-family="Times New Roman,serif" font-size="14.00">__iter__(): Iterator[Neuron]</text>
<text text-anchor="start" x="1526.12" y="-422.32" font-family="Times New Roman,serif" font-size="14.00">backward(x: np.ndarray): np.ndarray</text>
<text text-anchor="start" x="1526.12" y="-406.57" font-family="Times New Roman,serif" font-size="14.00">forward(x: np.ndarray): np.ndarray</text>
<text text-anchor="start" x="1526.12" y="-390.82" font-family="Times New Roman,serif" font-size="14.00">predict(x: np.ndarray): np.ndarray</text>
</g>
<!-- ann.layers.full_layer.FullLayer&#45;&gt;ann.layers.base_layer.BaseLayer -->
<g id="edge7" class="edge">
<title>ann.layers.full_layer.FullLayer&#45;&gt;ann.layers.base_layer.BaseLayer</title>
<path fill="none" stroke="black" d="M1891.08,-581.95C1952.1,-619.44 2020.32,-661.34 2075.83,-695.44"/>
<polygon fill="none" stroke="black" points="2073.69,-698.23 2084.04,-700.48 2077.35,-692.27 2073.69,-698.23"/>
</g>
<!-- ann.layers.input_layer.InputLayer -->
<g id="node10" class="node">
<title>ann.layers.input_layer.InputLayer</title>
<polygon fill="none" stroke="black" points="2228.88,-404.5 2228.88,-561.5 2462.38,-561.5 2462.38,-404.5 2228.88,-404.5"/>
<text text-anchor="start" x="2315.25" y="-544.2" font-family="Times New Roman,serif" font-size="14.00">InputLayer</text>
<polyline fill="none" stroke="black" points="2228.88,-537.75 2462.38,-537.75"/>
<text text-anchor="start" x="2257.5" y="-520.45" font-family="Times New Roman,serif" font-size="14.00">__size : int</text>
<text text-anchor="start" x="2257.5" y="-504.7" font-family="Times New Roman,serif" font-size="14.00">__weights : NoneType, ndarray</text>
<text text-anchor="start" x="2257.5" y="-488.95" font-family="Times New Roman,serif" font-size="14.00">size</text>
<polyline fill="none" stroke="black" points="2228.88,-482.5 2462.38,-482.5"/>
<text text-anchor="start" x="2236.88" y="-466.2" font-family="Times New Roman,serif" font-size="14.00">__init__(input_size: int, size: int): None</text>
<text text-anchor="start" x="2236.88" y="-452.2" font-family="Times New Roman,serif" font-size="14.00">__iter__(): Iterator</text>
<text text-anchor="start" x="2236.88" y="-438.2" font-family="Times New Roman,serif" font-style="italic" font-size="14.00">backward</text>
<text text-anchor="start" x="2293.88" y="-438.2" font-family="Times New Roman,serif" font-size="14.00">(y: np.ndarray): None</text>
<text text-anchor="start" x="2236.88" y="-424.2" font-family="Times New Roman,serif" font-size="14.00">forward(x: np.ndarray): np.ndarray</text>
<text text-anchor="start" x="2236.88" y="-410.2" font-family="Times New Roman,serif" font-size="14.00">predict(x: np.ndarray): np.ndarray</text>
</g>
<!-- ann.layers.input_layer.InputLayer&#45;&gt;ann.layers.base_layer.BaseLayer -->
<g id="edge8" class="edge">
<title>ann.layers.input_layer.InputLayer&#45;&gt;ann.layers.base_layer.BaseLayer</title>
<path fill="none" stroke="black" d="M2301.33,-561.86C2278.21,-602.51 2250.1,-651.92 2227.5,-691.65"/>
<polygon fill="none" stroke="black" points="2224.53,-689.79 2222.63,-700.22 2230.61,-693.26 2224.53,-689.79"/>
</g>
<!-- ann.layers.layer.Layer -->
<g id="node11" class="node">
<title>ann.layers.layer.Layer</title>
<polygon fill="none" stroke="black" points="3694.62,-95 3694.62,-213.5 3962.62,-213.5 3962.62,-95 3694.62,-95"/>
<text text-anchor="start" x="3812.88" y="-196.2" font-family="Times New Roman,serif" font-size="14.00">Layer</text>
<polyline fill="none" stroke="black" points="3694.62,-189.75 3962.62,-189.75"/>
<text text-anchor="start" x="3785.12" y="-172.45" font-family="Times New Roman,serif" font-size="14.00">__cls</text>
<text text-anchor="start" x="3785.12" y="-156.7" font-family="Times New Roman,serif" font-size="14.00">__params : dict</text>
<polyline fill="none" stroke="black" points="3694.62,-150.25 3962.62,-150.25"/>
<text text-anchor="start" x="3702.62" y="-132.95" font-family="Times New Roman,serif" font-size="14.00">__init__(cls)</text>
<text text-anchor="start" x="3702.62" y="-117.2" font-family="Times New Roman,serif" font-size="14.00">compile(input_size: Optional[int]): BaseLayer</text>
<text text-anchor="start" x="3702.62" y="-101.45" font-family="Times New Roman,serif" font-size="14.00">get_params(): dict</text>
</g>
<!-- ann.layers.activations.leru.LeRU -->
<g id="node12" class="node">
<title>ann.layers.activations.leru.LeRU</title>
<polygon fill="none" stroke="black" points="2553.62,-102.88 2553.62,-205.62 2773.62,-205.62 2773.62,-102.88 2553.62,-102.88"/>
<text text-anchor="start" x="2646.75" y="-188.32" font-family="Times New Roman,serif" font-size="14.00">LeRU</text>
<polyline fill="none" stroke="black" points="2553.62,-181.88 2773.62,-181.88"/>
<text text-anchor="start" x="2593.88" y="-164.57" font-family="Times New Roman,serif" font-size="14.00">_last_output : NoneType</text>
<polyline fill="none" stroke="black" points="2553.62,-158.12 2773.62,-158.12"/>
<text text-anchor="start" x="2561.62" y="-140.82" font-family="Times New Roman,serif" font-size="14.00">__init__()</text>
<text text-anchor="start" x="2561.62" y="-125.08" font-family="Times New Roman,serif" font-size="14.00">backward(x: np.ndarray): np.ndarray</text>
<text text-anchor="start" x="2561.62" y="-109.33" font-family="Times New Roman,serif" font-size="14.00">predict(x: np.ndarray): np.ndarray</text>
</g>
<!-- ann.layers.activations.leru.LeRU&#45;&gt;ann.layers.activations.base_activation.BaseActivation -->
<g id="edge5" class="edge">
<title>ann.layers.activations.leru.LeRU&#45;&gt;ann.layers.activations.base_activation.BaseActivation</title>
<path fill="none" stroke="black" d="M2663.62,-205.95C2663.62,-256.72 2663.62,-335.8 2663.62,-396.33"/>
<polygon fill="none" stroke="black" points="2660.13,-396.28 2663.63,-406.28 2667.13,-396.28 2660.13,-396.28"/>
</g>
<!-- ann.loss.loss.Loss -->
<g id="node13" class="node">
<title>ann.loss.loss.Loss</title>
<polygon fill="none" stroke="black" points="212.5,-453.12 212.5,-512.88 512.75,-512.88 512.75,-453.12 212.5,-453.12"/>
<text text-anchor="start" x="348.75" y="-495.57" font-family="Times New Roman,serif" font-size="14.00">Loss</text>
<polyline fill="none" stroke="black" points="212.5,-489.12 512.75,-489.12"/>
<polyline fill="none" stroke="black" points="212.5,-489.12 512.75,-489.12"/>
<text text-anchor="start" x="220.5" y="-472.82" font-family="Times New Roman,serif" font-style="italic" font-size="14.00">backward</text>
<text text-anchor="start" x="277.5" y="-472.82" font-family="Times New Roman,serif" font-size="14.00">(y_pred: array, y_true: array): np.ndarray</text>
<text text-anchor="start" x="220.5" y="-458.82" font-family="Times New Roman,serif" font-style="italic" font-size="14.00">forward</text>
<text text-anchor="start" x="266.25" y="-458.82" font-family="Times New Roman,serif" font-size="14.00">(y_pred: array, y_true: array): np.float64</text>
</g>
<!-- ann.trainers.trainer.Trainer -->
<g id="node24" class="node">
<title>ann.trainers.trainer.Trainer</title>
<polygon fill="none" stroke="black" points="44.88,-658 44.88,-871 680.38,-871 680.38,-658 44.88,-658"/>
<text text-anchor="start" x="342.75" y="-853.7" font-family="Times New Roman,serif" font-size="14.00">Trainer</text>
<polyline fill="none" stroke="black" points="44.88,-847.25 680.38,-847.25"/>
<text text-anchor="start" x="285.38" y="-829.95" font-family="Times New Roman,serif" font-size="14.00">loss</text>
<text text-anchor="start" x="285.38" y="-814.2" font-family="Times New Roman,serif" font-size="14.00">loss_test : NoneType</text>
<text text-anchor="start" x="285.38" y="-798.45" font-family="Times New Roman,serif" font-size="14.00">loss_train : NoneType</text>
<text text-anchor="start" x="285.38" y="-782.7" font-family="Times New Roman,serif" font-size="14.00">network</text>
<text text-anchor="start" x="285.38" y="-766.95" font-family="Times New Roman,serif" font-size="14.00">optimizer</text>
<text text-anchor="start" x="285.38" y="-751.2" font-family="Times New Roman,serif" font-size="14.00">scheduler : Schedule | None</text>
<text text-anchor="start" x="285.38" y="-735.45" font-family="Times New Roman,serif" font-size="14.00">verbose : bool</text>
<polyline fill="none" stroke="black" points="44.88,-729 680.38,-729"/>
<text text-anchor="start" x="52.88" y="-711.7" font-family="Times New Roman,serif" font-size="14.00">__init__(network: Network, loss: Loss, optimizer: Optimizer, verbose: bool, scheduler: Schedule | None): None</text>
<text text-anchor="start" x="52.88" y="-695.95" font-family="Times New Roman,serif" font-size="14.00">__shuffle(x: np.ndarray, y: np.ndarray): (np.ndarray, np.ndarray)</text>
<text text-anchor="start" x="52.88" y="-680.2" font-family="Times New Roman,serif" font-size="14.00">__split(x: np.ndarray, y: np.ndarray, test_size: float): (np.ndarray, np.ndarray, np.ndarray, np.ndarray)</text>
<text text-anchor="start" x="52.88" y="-664.45" font-family="Times New Roman,serif" font-size="14.00">fit(x: array, y: array, epochs: int, test_size: float, batch_size: int, shuffle: bool): None</text>
</g>
<!-- ann.loss.loss.Loss&#45;&gt;ann.trainers.trainer.Trainer -->
<g id="edge19" class="edge">
<title>ann.loss.loss.Loss&#45;&gt;ann.trainers.trainer.Trainer</title>
<path fill="none" stroke="black" d="M362.62,-513.12C362.62,-544.44 362.62,-596.27 362.62,-644.68"/>
<polygon fill="none" stroke="black" points="362.63,-644.65 366.63,-650.65 362.63,-656.65 358.63,-650.65 362.63,-644.65"/>
<text text-anchor="middle" x="373.88" y="-626.2" font-family="Times New Roman,serif" font-size="14.00" fill="green">loss</text>
</g>
<!-- ann.loss.mae.MAE -->
<g id="node14" class="node">
<title>ann.loss.mae.MAE</title>
<polygon fill="none" stroke="black" points="213.62,-122.62 213.62,-185.88 511.62,-185.88 511.62,-122.62 213.62,-122.62"/>
<text text-anchor="start" x="347.62" y="-168.57" font-family="Times New Roman,serif" font-size="14.00">MAE</text>
<polyline fill="none" stroke="black" points="213.62,-162.12 511.62,-162.12"/>
<polyline fill="none" stroke="black" points="213.62,-162.12 511.62,-162.12"/>
<text text-anchor="start" x="221.62" y="-144.82" font-family="Times New Roman,serif" font-size="14.00">backward(y_pred: array, y_true: array): np.ndarray</text>
<text text-anchor="start" x="221.62" y="-129.07" font-family="Times New Roman,serif" font-size="14.00">forward(y_pred: array, y_true: array): np.float64</text>
</g>
<!-- ann.loss.mae.MAE&#45;&gt;ann.loss.loss.Loss -->
<g id="edge12" class="edge">
<title>ann.loss.mae.MAE&#45;&gt;ann.loss.loss.Loss</title>
<path fill="none" stroke="black" d="M362.62,-186.28C362.62,-245.79 362.62,-375.89 362.62,-441.89"/>
<polygon fill="none" stroke="black" points="359.13,-441.54 362.63,-451.54 366.13,-441.54 359.13,-441.54"/>
</g>
<!-- ann.loss.mse.MSE -->
<g id="node15" class="node">
<title>ann.loss.mse.MSE</title>
<polygon fill="none" stroke="black" points="529.62,-122.62 529.62,-185.88 827.62,-185.88 827.62,-122.62 529.62,-122.62"/>
<text text-anchor="start" x="664.38" y="-168.57" font-family="Times New Roman,serif" font-size="14.00">MSE</text>
<polyline fill="none" stroke="black" points="529.62,-162.12 827.62,-162.12"/>
<polyline fill="none" stroke="black" points="529.62,-162.12 827.62,-162.12"/>
<text text-anchor="start" x="537.62" y="-144.82" font-family="Times New Roman,serif" font-size="14.00">backward(y_pred: array, y_true: array): np.ndarray</text>
<text text-anchor="start" x="537.62" y="-129.07" font-family="Times New Roman,serif" font-size="14.00">forward(y_pred: array, y_true: array): np.float64</text>
</g>
<!-- ann.loss.mse.MSE&#45;&gt;ann.loss.loss.Loss -->
<g id="edge13" class="edge">
<title>ann.loss.mse.MSE&#45;&gt;ann.loss.loss.Loss</title>
<path fill="none" stroke="black" d="M648.61,-186.28C590.11,-246.78 461.06,-380.22 398.3,-445.12"/>
<polygon fill="none" stroke="black" points="396.11,-442.35 391.67,-451.97 401.14,-447.21 396.11,-442.35"/>
</g>
<!-- ann.layers.scalers.min_max_scaler.MinMaxScaler -->
<g id="node16" class="node">
<title>ann.layers.scalers.min_max_scaler.MinMaxScaler</title>
<polygon fill="none" stroke="black" points="845.88,-63.5 845.88,-245 1253.38,-245 1253.38,-63.5 845.88,-63.5"/>
<text text-anchor="start" x="1009.12" y="-227.7" font-family="Times New Roman,serif" font-size="14.00">MinMaxScaler</text>
<polyline fill="none" stroke="black" points="845.88,-221.25 1253.38,-221.25"/>
<text text-anchor="start" x="986.25" y="-203.95" font-family="Times New Roman,serif" font-size="14.00">__max_value : ndarray</text>
<text text-anchor="start" x="986.25" y="-188.2" font-family="Times New Roman,serif" font-size="14.00">__min_value : ndarray</text>
<text text-anchor="start" x="986.25" y="-172.45" font-family="Times New Roman,serif" font-size="14.00">__scales : ndarray</text>
<text text-anchor="start" x="986.25" y="-156.7" font-family="Times New Roman,serif" font-size="14.00">__shifts : ndarray</text>
<polyline fill="none" stroke="black" points="845.88,-150.25 1253.38,-150.25"/>
<text text-anchor="start" x="853.88" y="-132.95" font-family="Times New Roman,serif" font-size="14.00">__init__(min_value: np.ndarray | None, max_value: np.ndarray | None)</text>
<text text-anchor="start" x="853.88" y="-117.2" font-family="Times New Roman,serif" font-size="14.00">_fit_backward(y: np.ndarray): None</text>
<text text-anchor="start" x="853.88" y="-101.45" font-family="Times New Roman,serif" font-size="14.00">_fit_forward(x: np.ndarray): None</text>
<text text-anchor="start" x="853.88" y="-85.7" font-family="Times New Roman,serif" font-size="14.00">backward(y: np.ndarray): np.ndarray</text>
<text text-anchor="start" x="853.88" y="-69.95" font-family="Times New Roman,serif" font-size="14.00">forward(x: np.ndarray): np.ndarray</text>
</g>
<!-- ann.layers.scalers.min_max_scaler.MinMaxScaler&#45;&gt;ann.layers.scalers.base_scaler.BaseScaler -->
<g id="edge10" class="edge">
<title>ann.layers.scalers.min_max_scaler.MinMaxScaler&#45;&gt;ann.layers.scalers.base_scaler.BaseScaler</title>
<path fill="none" stroke="black" d="M1139.57,-245.4C1184.46,-290.4 1238.67,-344.73 1283.82,-389.98"/>
<polygon fill="none" stroke="black" points="1281.24,-392.35 1290.78,-396.96 1286.2,-387.41 1281.24,-392.35"/>
</g>
<!-- ann.net.net.Network -->
<g id="node17" class="node">
<title>ann.net.net.Network</title>
<polygon fill="none" stroke="black" points="531.12,-360.75 531.12,-605.25 748.12,-605.25 748.12,-360.75 531.12,-360.75"/>
<text text-anchor="start" x="615.62" y="-587.95" font-family="Times New Roman,serif" font-size="14.00">Network</text>
<polyline fill="none" stroke="black" points="531.12,-581.5 748.12,-581.5"/>
<text text-anchor="start" x="566.5" y="-564.2" font-family="Times New Roman,serif" font-size="14.00">__commands : tuple</text>
<text text-anchor="start" x="566.5" y="-548.45" font-family="Times New Roman,serif" font-size="14.00">__layers : List[BaseLayer]</text>
<polyline fill="none" stroke="black" points="531.12,-542 748.12,-542"/>
<text text-anchor="start" x="539.12" y="-524.7" font-family="Times New Roman,serif" font-size="14.00">__forward(x: array): np.ndarray</text>
<text text-anchor="start" x="539.12" y="-508.95" font-family="Times New Roman,serif" font-size="14.00">__getitem__(index: int): BaseLayer</text>
<text text-anchor="start" x="539.12" y="-493.2" font-family="Times New Roman,serif" font-size="14.00">__init__()</text>
<text text-anchor="start" x="539.12" y="-477.45" font-family="Times New Roman,serif" font-size="14.00">__iter__(): Iterator[BaseLayer]</text>
<text text-anchor="start" x="539.12" y="-461.7" font-family="Times New Roman,serif" font-size="14.00">__predict(x: array): np.ndarray</text>
<text text-anchor="start" x="539.12" y="-445.95" font-family="Times New Roman,serif" font-size="14.00">__prepare(x: array): np.ndarray</text>
<text text-anchor="start" x="539.12" y="-430.2" font-family="Times New Roman,serif" font-size="14.00">__reversed__(): Iterator[BaseLayer]</text>
<text text-anchor="start" x="539.12" y="-414.45" font-family="Times New Roman,serif" font-size="14.00">backward(y: array): None</text>
<text text-anchor="start" x="539.12" y="-398.7" font-family="Times New Roman,serif" font-size="14.00">compile(): Network</text>
<text text-anchor="start" x="539.12" y="-382.95" font-family="Times New Roman,serif" font-size="14.00">forward(x: array): np.ndarray</text>
<text text-anchor="start" x="539.12" y="-367.2" font-family="Times New Roman,serif" font-size="14.00">predict(x: array): np.ndarray</text>
</g>
<!-- ann.net.net.Network&#45;&gt;ann.trainers.trainer.Trainer -->
<g id="edge20" class="edge">
<title>ann.net.net.Network&#45;&gt;ann.trainers.trainer.Trainer</title>
<path fill="none" stroke="black" d="M530.73,-596.52C527.66,-599.63 524.63,-602.71 521.62,-605.75 507.82,-619.72 493.27,-634.32 478.81,-648.76"/>
<polygon fill="none" stroke="black" points="478.96,-648.61 477.53,-655.68 470.46,-657.08 471.88,-650.01 478.96,-648.61"/>
<text text-anchor="middle" x="523.12" y="-626.2" font-family="Times New Roman,serif" font-size="14.00" fill="green">network</text>
</g>
<!-- ann.neuron.neuron.Neuron -->
<g id="node18" class="node">
<title>ann.neuron.neuron.Neuron</title>
<polygon fill="none" stroke="black" points="3029.25,-0.5 3029.25,-308 3304,-308 3304,-0.5 3029.25,-0.5"/>
<text text-anchor="start" x="3146" y="-290.7" font-family="Times New Roman,serif" font-size="14.00">Neuron</text>
<polyline fill="none" stroke="black" points="3029.25,-284.25 3304,-284.25"/>
<text text-anchor="start" x="3037.25" y="-266.95" font-family="Times New Roman,serif" font-size="14.00">__bias</text>
<text text-anchor="start" x="3037.25" y="-251.2" font-family="Times New Roman,serif" font-size="14.00">__delta_bias</text>
<text text-anchor="start" x="3037.25" y="-235.45" font-family="Times New Roman,serif" font-size="14.00">__delta_weights : ndarray</text>
<text text-anchor="start" x="3037.25" y="-219.7" font-family="Times New Roman,serif" font-size="14.00">__input_size : tuple[int, ...]</text>
<text text-anchor="start" x="3037.25" y="-203.95" font-family="Times New Roman,serif" font-size="14.00">__last_input : Optional[Union[ndarray, None]]</text>
<text text-anchor="start" x="3037.25" y="-188.2" font-family="Times New Roman,serif" font-size="14.00">__weights : ndarray</text>
<text text-anchor="start" x="3037.25" y="-172.45" font-family="Times New Roman,serif" font-size="14.00">bias</text>
<text text-anchor="start" x="3037.25" y="-156.7" font-family="Times New Roman,serif" font-size="14.00">delta_bias</text>
<text text-anchor="start" x="3037.25" y="-140.95" font-family="Times New Roman,serif" font-size="14.00">delta_weights</text>
<text text-anchor="start" x="3037.25" y="-125.2" font-family="Times New Roman,serif" font-size="14.00">size</text>
<text text-anchor="start" x="3037.25" y="-109.45" font-family="Times New Roman,serif" font-size="14.00">weights</text>
<polyline fill="none" stroke="black" points="3029.25,-103 3304,-103"/>
<text text-anchor="start" x="3053.38" y="-85.7" font-family="Times New Roman,serif" font-size="14.00">__init__(input_size: tuple[int, ...]): None</text>
<text text-anchor="start" x="3053.38" y="-69.95" font-family="Times New Roman,serif" font-size="14.00">backward(error: np.longdouble): ndarray</text>
<text text-anchor="start" x="3053.38" y="-54.2" font-family="Times New Roman,serif" font-size="14.00">forward(x: ndarray): np.longdouble</text>
<text text-anchor="start" x="3053.38" y="-38.45" font-family="Times New Roman,serif" font-size="14.00">initialize(initializer: BaseInitializer): None</text>
<text text-anchor="start" x="3053.38" y="-22.7" font-family="Times New Roman,serif" font-size="14.00">predict(x: ndarray): np.longdouble</text>
<text text-anchor="start" x="3053.38" y="-6.95" font-family="Times New Roman,serif" font-size="14.00">update(): None</text>
</g>
<!-- ann.neuron.neuron.Neuron&#45;&gt;ann.neuron.base_neuron.BaseNeuron -->
<g id="edge14" class="edge">
<title>ann.neuron.neuron.Neuron&#45;&gt;ann.neuron.base_neuron.BaseNeuron</title>
<path fill="none" stroke="black" d="M3166.62,-308.1C3166.62,-337.18 3166.62,-366.71 3166.62,-392.98"/>
<polygon fill="none" stroke="black" points="3163.13,-392.9 3166.63,-402.9 3170.13,-392.9 3163.13,-392.9"/>
</g>
<!-- ann.inizializators.normal_initializer.NormalInitializer -->
<g id="node19" class="node">
<title>ann.inizializators.normal_initializer.NormalInitializer</title>
<polygon fill="none" stroke="black" points="1897.88,-130.5 1897.88,-178 2275.38,-178 2275.38,-130.5 1897.88,-130.5"/>
<text text-anchor="start" x="2041.25" y="-160.7" font-family="Times New Roman,serif" font-size="14.00">NormalInitializer</text>
<polyline fill="none" stroke="black" points="1897.88,-154.25 2275.38,-154.25"/>
<polyline fill="none" stroke="black" points="1897.88,-154.25 2275.38,-154.25"/>
<text text-anchor="start" x="1905.88" y="-136.95" font-family="Times New Roman,serif" font-size="14.00">initialize(shape: tuple[int, ...], scale: float, mean: float): np.ndarray</text>
</g>
<!-- ann.inizializators.normal_initializer.NormalInitializer&#45;&gt;ann.inizializators.base_initializer.BaseInitializer -->
<g id="edge1" class="edge">
<title>ann.inizializators.normal_initializer.NormalInitializer&#45;&gt;ann.inizializators.base_initializer.BaseInitializer</title>
<path fill="none" stroke="black" d="M2086.62,-178.49C2086.62,-227.06 2086.62,-340.94 2086.62,-414.57"/>
<polygon fill="none" stroke="black" points="2083.13,-414.51 2086.63,-424.51 2090.13,-414.51 2083.13,-414.51"/>
</g>
<!-- ann.optimizers.optimizer.Optimizer&#45;&gt;ann.trainers.trainer.Trainer -->
<g id="edge21" class="edge">
<title>ann.optimizers.optimizer.Optimizer&#45;&gt;ann.trainers.trainer.Trainer</title>
<path fill="none" stroke="black" d="M141.39,-532.91C159.76,-555.51 182.31,-582.45 203.62,-605.75 216.44,-619.75 230.14,-634.15 243.93,-648.29"/>
<polygon fill="none" stroke="black" points="243.97,-648.32 251.02,-649.8 252.37,-656.88 245.31,-655.4 243.97,-648.32"/>
<text text-anchor="middle" x="259.5" y="-626.2" font-family="Times New Roman,serif" font-size="14.00" fill="green">optimizer</text>
</g>
<!-- ann.layers.activations.sigmoid.Sigmoid -->
<g id="node21" class="node">
<title>ann.layers.activations.sigmoid.Sigmoid</title>
<polygon fill="none" stroke="black" points="2791.62,-102.88 2791.62,-205.62 3011.62,-205.62 3011.62,-102.88 2791.62,-102.88"/>
<text text-anchor="start" x="2878.38" y="-188.32" font-family="Times New Roman,serif" font-size="14.00">Sigmoid</text>
<polyline fill="none" stroke="black" points="2791.62,-181.88 3011.62,-181.88"/>
<text text-anchor="start" x="2831.88" y="-164.57" font-family="Times New Roman,serif" font-size="14.00">_last_output : NoneType</text>
<polyline fill="none" stroke="black" points="2791.62,-158.12 3011.62,-158.12"/>
<text text-anchor="start" x="2799.62" y="-140.82" font-family="Times New Roman,serif" font-size="14.00">__init__()</text>
<text text-anchor="start" x="2799.62" y="-125.08" font-family="Times New Roman,serif" font-size="14.00">backward(x: np.ndarray): np.ndarray</text>
<text text-anchor="start" x="2799.62" y="-109.33" font-family="Times New Roman,serif" font-size="14.00">predict(x: np.ndarray): np.ndarray</text>
</g>
<!-- ann.layers.activations.sigmoid.Sigmoid&#45;&gt;ann.layers.activations.base_activation.BaseActivation -->
<g id="edge6" class="edge">
<title>ann.layers.activations.sigmoid.Sigmoid&#45;&gt;ann.layers.activations.base_activation.BaseActivation</title>
<path fill="none" stroke="black" d="M2864.7,-205.95C2827.26,-257.35 2768.67,-337.78 2724.38,-398.59"/>
<polygon fill="none" stroke="black" points="2721.63,-396.42 2718.57,-406.57 2727.29,-400.54 2721.63,-396.42"/>
</g>
<!-- ann.layers.scalers.standart_scaler.StandardScaler -->
<g id="node22" class="node">
<title>ann.layers.scalers.standart_scaler.StandardScaler</title>
<polygon fill="none" stroke="black" points="1271.62,-63.5 1271.62,-245 1491.62,-245 1491.62,-63.5 1271.62,-63.5"/>
<text text-anchor="start" x="1339.25" y="-227.7" font-family="Times New Roman,serif" font-size="14.00">StandardScaler</text>
<polyline fill="none" stroke="black" points="1271.62,-221.25 1491.62,-221.25"/>
<text text-anchor="start" x="1331" y="-203.95" font-family="Times New Roman,serif" font-size="14.00">__mean : float</text>
<text text-anchor="start" x="1331" y="-188.2" font-family="Times New Roman,serif" font-size="14.00">__scales : ndarray</text>
<text text-anchor="start" x="1331" y="-172.45" font-family="Times New Roman,serif" font-size="14.00">__shifts : ndarray</text>
<text text-anchor="start" x="1331" y="-156.7" font-family="Times New Roman,serif" font-size="14.00">__std : float</text>
<polyline fill="none" stroke="black" points="1271.62,-150.25 1491.62,-150.25"/>
<text text-anchor="start" x="1279.62" y="-132.95" font-family="Times New Roman,serif" font-size="14.00">__init__(mean: float, std: float)</text>
<text text-anchor="start" x="1279.62" y="-117.2" font-family="Times New Roman,serif" font-size="14.00">_fit_backward(y: np.ndarray): None</text>
<text text-anchor="start" x="1279.62" y="-101.45" font-family="Times New Roman,serif" font-size="14.00">_fit_forward(x: np.ndarray): None</text>
<text text-anchor="start" x="1279.62" y="-85.7" font-family="Times New Roman,serif" font-size="14.00">backward(y: np.ndarray): np.ndarray</text>
<text text-anchor="start" x="1279.62" y="-69.95" font-family="Times New Roman,serif" font-size="14.00">forward(x: np.ndarray): np.ndarray</text>
</g>
<!-- ann.layers.scalers.standart_scaler.StandardScaler&#45;&gt;ann.layers.scalers.base_scaler.BaseScaler -->
<g id="edge11" class="edge">
<title>ann.layers.scalers.standart_scaler.StandardScaler&#45;&gt;ann.layers.scalers.base_scaler.BaseScaler</title>
<path fill="none" stroke="black" d="M1379.97,-245.4C1379.16,-289.28 1378.2,-342.04 1377.38,-386.59"/>
<polygon fill="none" stroke="black" points="1373.88,-386.46 1377.19,-396.52 1380.88,-386.58 1373.88,-386.46"/>
</g>
<!-- ann.schedules.step_schedule.StepSchedule -->
<g id="node23" class="node">
<title>ann.schedules.step_schedule.StepSchedule</title>
<polygon fill="none" stroke="black" points="3482.75,-95 3482.75,-213.5 3676.5,-213.5 3676.5,-95 3482.75,-95"/>
<text text-anchor="start" x="3541.38" y="-196.2" font-family="Times New Roman,serif" font-size="14.00">StepSchedule</text>
<polyline fill="none" stroke="black" points="3482.75,-189.75 3676.5,-189.75"/>
<text text-anchor="start" x="3517.38" y="-172.45" font-family="Times New Roman,serif" font-size="14.00">_current_learning_rate</text>
<text text-anchor="start" x="3517.38" y="-156.7" font-family="Times New Roman,serif" font-size="14.00">_gamma : float</text>
<text text-anchor="start" x="3517.38" y="-140.95" font-family="Times New Roman,serif" font-size="14.00">_step : int</text>
<polyline fill="none" stroke="black" points="3482.75,-134.5 3676.5,-134.5"/>
<text text-anchor="start" x="3490.75" y="-117.2" font-family="Times New Roman,serif" font-size="14.00">__init__(step: int, gamma: float)</text>
<text text-anchor="start" x="3490.75" y="-101.45" font-family="Times New Roman,serif" font-size="14.00">step(): None</text>
</g>
<!-- ann.schedules.step_schedule.StepSchedule&#45;&gt;ann.schedules.base_schedule.BaseSchedule -->
<g id="edge17" class="edge">
<title>ann.schedules.step_schedule.StepSchedule&#45;&gt;ann.schedules.base_schedule.BaseSchedule</title>
<path fill="none" stroke="black" d="M3565.5,-213.67C3554.04,-261.08 3537.63,-328.94 3524.19,-384.55"/>
<polygon fill="none" stroke="black" points="3520.84,-383.49 3521.89,-394.03 3527.65,-385.14 3520.84,-383.49"/>
</g>
<!-- ann.inizializators.uniform_initializer.UniformInitializer -->
<g id="node25" class="node">
<title>ann.inizializators.uniform_initializer.UniformInitializer</title>
<polygon fill="none" stroke="black" points="1515.62,-130.5 1515.62,-178 1879.62,-178 1879.62,-130.5 1515.62,-130.5"/>
<text text-anchor="start" x="1649.62" y="-160.7" font-family="Times New Roman,serif" font-size="14.00">UniformInitializer</text>
<polyline fill="none" stroke="black" points="1515.62,-154.25 1879.62,-154.25"/>
<polyline fill="none" stroke="black" points="1515.62,-154.25 1879.62,-154.25"/>
<text text-anchor="start" x="1523.62" y="-136.95" font-family="Times New Roman,serif" font-size="14.00">initialize(shape: tuple[int, ...], low: float, high: float): np.ndarray</text>
</g>
<!-- ann.inizializators.uniform_initializer.UniformInitializer&#45;&gt;ann.inizializators.base_initializer.BaseInitializer -->
<g id="edge2" class="edge">
<title>ann.inizializators.uniform_initializer.UniformInitializer&#45;&gt;ann.inizializators.base_initializer.BaseInitializer</title>
<path fill="none" stroke="black" d="M1726.4,-178.39C1763.76,-208.43 1831.01,-262.45 1888.62,-308.5 1917.47,-331.55 1925.55,-336.27 1953.62,-360.25 1975.17,-378.65 1998.11,-399.27 2018.77,-418.22"/>
<polygon fill="none" stroke="black" points="2016.32,-420.73 2026.05,-424.93 2021.06,-415.58 2016.32,-420.73"/>
</g>
<!-- ann.inizializators.uniform_initializer.UniformInitializer&#45;&gt;ann.layers.full_layer.FullLayer -->
<g id="edge18" class="edge">
<title>ann.inizializators.uniform_initializer.UniformInitializer&#45;&gt;ann.layers.full_layer.FullLayer</title>
<path fill="none" stroke="black" d="M1700.04,-178.49C1704.18,-218.29 1712.89,-301.94 1720.11,-371.36"/>
<polygon fill="black" stroke="black" points="1720.11,-371.31 1724.71,-376.87 1721.35,-383.25 1716.75,-377.7 1720.11,-371.31"/>
<text text-anchor="middle" x="1749.12" y="-328.95" font-family="Times New Roman,serif" font-size="14.00" fill="green">__initializer</text>
</g>
<!-- ann.inizializators.zeros_initializer.ZerosInitializer -->
<g id="node26" class="node">
<title>ann.inizializators.zeros_initializer.ZerosInitializer</title>
<polygon fill="none" stroke="black" points="2293.38,-130.5 2293.38,-178 2535.88,-178 2535.88,-130.5 2293.38,-130.5"/>
<text text-anchor="start" x="2373.75" y="-160.7" font-family="Times New Roman,serif" font-size="14.00">ZerosInitializer</text>
<polyline fill="none" stroke="black" points="2293.38,-154.25 2535.88,-154.25"/>
<polyline fill="none" stroke="black" points="2293.38,-154.25 2535.88,-154.25"/>
<text text-anchor="start" x="2301.38" y="-136.95" font-family="Times New Roman,serif" font-size="14.00">initialize(shape: tuple[int, ...]): np.ndarray</text>
</g>
<!-- ann.inizializators.zeros_initializer.ZerosInitializer&#45;&gt;ann.inizializators.base_initializer.BaseInitializer -->
<g id="edge3" class="edge">
<title>ann.inizializators.zeros_initializer.ZerosInitializer&#45;&gt;ann.inizializators.base_initializer.BaseInitializer</title>
<path fill="none" stroke="black" d="M2397.39,-178.27C2373.63,-209.35 2328.71,-265.76 2284.62,-308.5 2258.11,-334.2 2247.7,-336.27 2219.62,-360.25 2198.08,-378.65 2175.14,-399.27 2154.48,-418.22"/>
<polygon fill="none" stroke="black" points="2152.19,-415.58 2147.2,-424.93 2156.93,-420.73 2152.19,-415.58"/>
</g>
</g>
</svg>
